<svg xmlns="http://www.w3.org/2000/svg" xmlns:xlink="http://www.w3.org/1999/xlink" width="1920" height="1162" viewBox="0 0 1920 1162">
    <defs>
        <path id="a" d="M0 479.958V.28h479.884v479.68H0z"/>
    </defs>
    <g fill="none" fill-rule="evenodd">
        <path fill="#0877BF" d="M-1 0h1921v1162H-1z"/>
        <path fill="#FFC81A" d="M478.912 984.744c-3.432-3.622-29.505 3.546-59.61 16.5-29.925 12.88-52.928 26.785-52.895 31.828l-2.83 41.492 145.826-62.76-30.491-27.06z"/>
        <path fill="#FDE23F" d="M45 1175c585.543-345.378 1468.677-307.404 1810 0H45z"/>
        <path fill="#FFC81A" d="M608.656 1040.23c5.799 13.348-7.702 32.124-30.154 41.939-22.455 9.813-45.357 6.95-51.158-6.4-5.799-13.347 7.702-32.124 30.156-41.938 22.453-9.813 45.357-6.948 51.156 6.399M1251.883 1026.861c-1.073 5.492-9.28 8.44-18.328 6.583-9.049-1.856-15.513-7.815-14.438-13.306 1.075-5.492 9.281-8.44 18.328-6.582 9.049 1.857 15.513 7.815 14.438 13.305M1006 1129c0 5.524-7.611 10-17 10s-17-4.476-17-10 7.611-10 17-10 17 4.476 17 10M1494.29 1066.834c-3.475 9.282-18.735 11.96-34.083 5.973-15.35-5.983-24.973-18.36-21.497-27.641 3.475-9.282 18.735-11.96 34.083-5.973 15.348 5.983 24.973 18.36 21.497 27.641M1071 1162.5c0 9.665-13.431 17.5-30 17.5-16.567 0-30-7.835-30-17.5 0-9.667 13.433-17.5 30-17.5 16.569 0 30 7.833 30 17.5M1158.988 977.238c-.567 14.603-20.946 25.663-45.516 24.704-24.569-.962-44.027-13.576-43.46-28.18.567-14.603 20.944-25.663 45.514-24.704 24.57.96 44.03 13.576 43.462 28.18"/>
        <path fill="#F99300" d="M1115.526 949.057c-24.57-.947-44.947 9.982-45.514 24.416-.07 1.754.162 3.479.66 5.158 4.527-11.82 22.869-20.156 44.451-19.322 21.583.833 39.217 10.556 42.802 22.691a15.963 15.963 0 0 0 1.063-5.092c.567-14.433-18.891-26.902-43.462-27.85" opacity=".241"/>
        <path fill="#FFC81A" d="M412.656 1149.23c5.799 13.347-7.702 32.123-30.156 41.938-22.453 9.815-45.355 6.95-51.156-6.399-5.799-13.348 7.702-32.124 30.156-41.937 22.453-9.815 45.355-6.95 51.156 6.399"/>
        <path fill="#F99300" d="M361.526 1142.925c-22.474 9.97-35.986 29.046-30.18 42.607a16.438 16.438 0 0 0 2.849 4.468c-1.108-12.9 11.714-28.685 31.453-37.444 19.74-8.758 39.824-7.573 48.352 2.035a16.662 16.662 0 0 0-1.275-5.165c-5.804-13.561-28.727-16.472-51.199-6.5"/>
        <path fill="#FFC81A" d="M812.65 1150.887c8.166 19.658-21.547 46.392-66.363 59.71-44.818 13.318-87.77 8.176-95.937-11.482-8.165-19.66 21.546-46.394 66.363-59.711 44.818-13.32 87.77-8.178 95.936 11.483"/>
        <path fill="#F99300" d="M716.717 1139.441c-44.82 13.384-74.534 40.253-66.366 60.011.992 2.402 2.509 4.584 4.47 6.548.623-18.606 28.327-40.767 67.698-52.525 39.37-11.756 77.293-9.197 91.47 4.993.086-2.575-.337-5.084-1.33-7.486-8.167-19.76-51.121-24.927-95.942-11.541"/>
        <path fill="#FFC81A" d="M1459.793 1219.266c-3.733 28.72-57.033 40.02-119.05 25.237-62.018-14.781-109.268-50.047-105.536-78.768 3.733-28.722 57.035-40.02 119.052-25.24 62.017 14.784 109.268 50.052 105.534 78.771"/>
        <path fill="#F99300" d="M1354.257 1140.5c-62.018-14.79-115.32-3.486-119.053 25.25-.454 3.495-.142 7.087.848 10.727 13.335-21.408 61.076-28.557 115.554-15.564 54.479 12.991 97.547 41.797 104.689 68.087 1.845-2.962 3.044-6.193 3.498-9.687 3.734-28.738-43.518-64.024-105.536-78.814"/>
        <path fill="#FDE23F" d="M868.302 890.517c-3.884-7.76-48.117-7.314-101.17 1.216-52.742 8.479-94.98 21.854-97.066 30.503L648 992l257-41.315-36.698-60.168z"/>
        <path fill="#F99300" d="M853.98 896.533c1.015 7.515-36.208 19.86-83.141 27.575-46.933 7.714-85.803 7.874-86.819.359-1.015-7.516 36.21-19.862 83.142-27.575 46.933-7.714 85.802-7.874 86.818-.359" opacity=".41"/>
        <path fill="#FDE23F" d="M1570.571 1010.996c.268-4.536-20.871-17.475-48.404-29.509-27.37-11.964-51.085-18.675-54.432-15.524l-29.488 23.859 133.373 58.299-1.049-37.125z"/>
        <path fill="#F99300" d="M1561.815 1009.065c-1.56 3.568-22.556-2.085-46.894-12.629-24.339-10.543-42.803-21.984-41.242-25.554 1.561-3.569 22.557 2.085 46.895 12.63 24.339 10.543 42.803 21.983 41.241 25.553" opacity=".42"/>
        <path fill="#FFC81A" d="M679.777 1043.682c1.696 7.152-6.457 15.33-18.206 18.265-11.753 2.936-22.651-.479-24.348-7.63-1.696-7.15 6.457-15.326 18.208-18.264 11.751-2.937 22.651.48 24.346 7.63"/>
        <path fill="#006DB4" d="M1238.825 813.689c-26.034-32.218-21.02-79.44 11.198-105.473 32.217-26.034 79.44-21.02 105.473 11.197s21.02 79.44-11.198 105.473c-32.217 26.034-79.44 21.02-105.473-11.197z"/>
        <path fill="#0881D0" d="M1345.152 824.919c-20.262 16.306-46.43 20.448-69.61 13.373l44.267-143.768a75.249 75.249 0 0 1 36.57 24.646c26.22 32.314 21.194 79.66-11.227 105.749"/>
        <path fill="#0881D0" d="M1355.369 719.778c-12.984-16.3-31.25-25.724-50.314-27.81a13.017 13.017 0 0 0-3.41 5.563c-2.107 6.87 1.712 14.22 8.484 16.335l52.192 16.296a76.482 76.482 0 0 0-6.952-10.384M1371.147 778.814a76.69 76.69 0 0 0-.094-25.685l-66.872-20.785c-6.778-2.107-14.045 1.756-16.147 8.586-2.104 6.83 1.723 14.142 8.503 16.249l68.484 21.287c2.05.636 4.143.72 6.126.348M1325.805 815.565l-43.055-13.442c-6.77-2.113-10.586-9.462-8.482-16.33 2.105-6.866 9.366-10.757 16.136-8.642l43.055 13.442c6.77 2.113 10.586 9.462 8.482 16.33-2.105 6.866-9.366 10.756-16.136 8.642M1327.06 836.037l-49.245-14.97c-6.811-2.071-14.094 1.66-16.181 8.29a12.198 12.198 0 0 0-.527 2.888c20.13 10.957 44.536 12.477 65.954 3.792"/>
        <path fill="#006DB4" d="M1323.03 737.905l-43.303-13.29c-5.398-1.657-8.455-7.377-6.792-12.712 1.662-5.335 7.44-8.343 12.84-6.686l43.303 13.29c5.4 1.658 8.456 7.378 6.792 12.713-1.663 5.334-7.44 8.343-12.84 6.685M1309.272 782.713l-43.304-13.291c-5.398-1.658-8.455-7.377-6.792-12.712 1.663-5.334 7.44-8.342 12.84-6.686l43.303 13.291c5.4 1.657 8.456 7.377 6.792 12.711-1.662 5.336-7.44 8.343-12.84 6.687M1295.617 826.525l-43.303-13.29c-5.398-1.658-8.456-7.377-6.792-12.713 1.663-5.333 7.44-8.341 12.84-6.685l43.303 13.291c5.399 1.656 8.455 7.377 6.792 12.711-1.664 5.335-7.44 8.343-12.84 6.686"/>
        <path fill="#006DB4" d="M1372.044 759.299a75.58 75.58 0 0 1-.315 16.176c9.866 8.99 14.574 17.591 12.713 23.613-2.148 6.948-13.446 11.797-30.224 12.97-19.303 1.348-43.486-2.106-68.094-9.725-24.608-7.62-46.514-18.435-61.686-30.458-13.186-10.45-19.775-20.838-17.629-27.787 1.86-6.019 10.593-10.457 23.793-12.3a74.497 74.497 0 0 1 8.869-13.532c-23.82 1.097-40.572 8.648-44.727 22.096-7.546 24.417 30.134 56.258 87.646 74.065 57.512 17.807 106.572 12.823 114.117-11.594 4.156-13.452-5.415-29.154-24.463-43.524"/>
        <path fill="#0D89CE" d="M1365.977 736.494a65.966 65.966 0 0 1 2 3.936c32.77 21.081 51.18 47.693 44.433 69.552-9.918 32.13-70.477 42.002-134.996 22.004s-108.939-62.409-99.02-94.541c6.692-21.679 36.444-33.212 74.903-32.288a66.54 66.54 0 0 1 3.88-2.134c-41.324-1.758-73.747 10.419-80.949 33.75-10.297 33.357 34.788 77.065 100.5 97.434 65.714 20.368 127.552 9.802 137.848-23.553 7.257-23.51-13-52.162-48.599-74.16"/>
        <path fill="#EBA3A0" d="M1406.764 826.21a6.499 6.499 0 1 1 3.84-12.418 6.499 6.499 0 0 1-3.84 12.418zM665.065 884.577c-6.393 8.32-18.322 9.882-26.641 3.488-8.32-6.394-9.882-18.321-3.488-26.642 6.393-8.32 18.32-9.881 26.64-3.488 8.32 6.393 9.882 18.321 3.489 26.642"/>
        <path fill="#FCB4B4" d="M663.45 886.46c.624-.616 2.012-1.739 2.561-2.454 6.48-8.437 4.898-20.532-3.535-27.015-8.434-6.483-20.524-4.9-27.005 3.537a19.405 19.405 0 0 0-1.471 2.22c6.74-6.648 17.52-7.475 25.237-1.542 7.718 5.934 8.9 17.025 4.212 25.254z"/>
        <path fill="#6881DB" d="M1421.218 258.896c-8.59 11.177-24.614 13.276-35.791 4.686-11.178-8.589-13.276-24.613-4.686-35.79 8.589-11.178 24.613-13.276 35.79-4.687 11.178 8.59 13.276 24.613 4.687 35.791"/>
        <path fill="#7790FC" d="M1412.24 228.69c10.229 7.861 12.848 21.946 6.636 32.848a25.72 25.72 0 0 0 2.342-2.642c8.589-11.178 6.49-27.202-4.686-35.79-11.178-8.59-27.202-6.493-35.791 4.685a25.708 25.708 0 0 0-1.95 2.943c8.934-8.809 23.22-9.905 33.449-2.044"/>
        <path fill="#008BCC" d="M491.089 171.521c2.528-.694 5.68-14.853 7.154-32.4 1.465-17.443.737-31.877-1.604-33.153L478.14 94 471 179l20.089-7.479z"/>
        <g transform="translate(6 -125)">
            <mask id="b" fill="#fff">
                <use xlink:href="#a"/>
            </mask>
            <path fill="#1699D3" d="M479.884 240.118c0 132.46-107.426 239.84-239.942 239.84C107.425 479.958 0 372.578 0 240.118S107.425.278 239.942.278c132.516 0 239.942 107.38 239.942 239.84" mask="url(#b)"/>
        </g>
        <path fill="#1699D3" d="M360.71 347.714c4.771 2.651 29.556-13.415 56.622-36.848 26.908-23.295 46.267-45.38 44.564-50.632L451.118 216 320 329.511l40.71 18.203z"/>
        <path fill="#0375C2" d="M365.342 339.481c-2.97-3.414 13.72-22.739 37.281-43.163 23.558-20.424 45.065-34.213 48.035-30.799 2.97 3.414-13.721 22.739-37.28 43.163-23.56 20.424-45.065 34.213-48.036 30.799"/>
        <path fill="#1699D3" d="M148.918 357.372c.546 3.534 18.748 9.848 41.663 14.366 22.78 4.493 41.912 5.573 43.938 2.573L253 350.888 142 329l6.918 28.372z"/>
        <path fill="#0375C2" d="M155.015 357.766c.575-2.957 17.375-2.115 37.524 1.881 20.15 3.995 36.02 9.631 35.446 12.587-.575 2.957-17.375 2.114-37.524-1.881-20.15-3.995-36.02-9.63-35.446-12.587"/>
        <path fill="#008BCC" d="M394.138 188.33c-13.025-6.008-13.572-26.475-1.221-45.71 12.35-19.238 32.92-29.96 45.944-23.95 13.026 6.009 13.573 26.474 1.222 45.71-12.35 19.236-32.92 29.96-45.945 23.95"/>
        <path fill="#0375C2" d="M438.87 118.465c-1.58-.733-3.276-1.213-5.053-1.465 8.763 8.187 7.87 26.08-2.969 43.026-10.838 16.945-28.011 27.3-40.848 25.483a15.882 15.882 0 0 0 4.189 2.817c13.013 6.026 33.564-4.728 45.903-24.02 12.339-19.291 11.793-39.816-1.221-45.841z" opacity=".397"/>
        <path fill="#008BCC" d="M247.943 167.214c-4.422-4.981-1.041-14.936 7.55-22.233 8.591-7.298 19.142-9.176 23.563-4.195 4.423 4.981 1.042 14.935-7.55 22.233-8.59 7.298-19.141 9.176-23.563 4.195M183.498 309.863c-7.96-9.183-1.876-27.536 13.59-40.991 15.465-13.456 34.454-16.919 42.414-7.735 7.96 9.183 1.876 27.536-13.59 40.991-15.464 13.456-34.454 16.919-42.414 7.735M312.269 169.887c-2.466-2.32-1.228-7.51 2.764-11.59 3.996-4.08 9.231-5.504 11.698-3.184 2.466 2.321 1.228 7.509-2.766 11.589-3.994 4.08-9.23 5.506-11.696 3.185"/>
        <path fill="#006DB4" d="M1304.168 358.388a36.087 36.087 0 0 1-25.279 26.517c-12.839 3.67-26.045-.058-35.026-8.65-13.449 1.258-22.912-.297-24.19-4.748-1.121-3.899 4.266-9.23 13.739-14.55-3.418-18.058 7.489-36.076 25.584-41.246 18.325-5.238 37.397 4.594 43.866 22.125 9.313-.094 15.546 1.614 16.568 5.165 1.18 4.103-4.85 9.793-15.262 15.387zM312.605 559.234a28.717 28.717 0 0 1-16.835-16.839L294.5 539l-1.27 3.395a28.72 28.72 0 0 1-16.836 16.839L273 560.502l3.394 1.268a28.704 28.704 0 0 1 16.836 16.835L294.5 582l1.27-3.395a28.703 28.703 0 0 1 16.835-16.835l3.395-1.268-3.395-1.268zM168.026 578.764a16.696 16.696 0 0 1-9.787-9.79L157.5 567l-.739 1.974a16.697 16.697 0 0 1-9.788 9.79L145 579.5l1.973.738a16.689 16.689 0 0 1 9.788 9.787l.74 1.974.738-1.974a16.688 16.688 0 0 1 9.787-9.787L170 579.5l-1.974-.737zM1346.605 103.234a28.717 28.717 0 0 1-16.835-16.839L1328.5 83l-1.27 3.395a28.72 28.72 0 0 1-16.836 16.839l-3.394 1.268 3.394 1.268a28.704 28.704 0 0 1 16.836 16.835l1.27 3.395 1.27-3.395a28.703 28.703 0 0 1 16.835-16.835l3.395-1.268-3.395-1.268zM513 736a7 7 0 1 1-14 0 7 7 0 0 1 14 0M486 719a4 4 0 1 1-8 0 4 4 0 0 1 8 0"/>
        <path fill="#F3FDFF" d="M1630.5 332c3.33 0 3.336-5 0-5-3.33 0-3.336 5 0 5"/>
        <path fill="#006DB4" d="M1738 594c0 6.627-5.373 12-12 12-6.628 0-12-5.373-12-12 0-6.628 5.372-12 12-12 6.627 0 12 5.372 12 12M1905 741a8 8 0 1 1-16 0 8 8 0 0 1 16 0M856 157c0 6.627-5.373 12-12 12-6.628 0-12-5.373-12-12 0-6.628 5.372-12 12-12 6.627 0 12 5.372 12 12"/>
        <path fill="#D4CF8A" d="M751.236 138.467a23.367 23.367 0 0 1-13.702-13.704L736.5 122l-1.034 2.763a23.369 23.369 0 0 1-13.703 13.704L719 139.499l2.764 1.034a23.369 23.369 0 0 1 13.703 13.704l1.034 2.763 1.033-2.763a23.367 23.367 0 0 1 13.702-13.704L754 139.5l-2.764-1.032zM1489.236 631.467a23.367 23.367 0 0 1-13.702-13.704L1474.5 615l-1.034 2.763a23.369 23.369 0 0 1-13.703 13.704l-2.764 1.032 2.764 1.034a23.369 23.369 0 0 1 13.703 13.704l1.034 2.763 1.033-2.763a23.367 23.367 0 0 1 13.702-13.704L1492 632.5l-2.764-1.032zM1713.236 285.467a23.367 23.367 0 0 1-13.702-13.704L1698.5 269l-1.034 2.763a23.369 23.369 0 0 1-13.703 13.704l-2.764 1.032 2.764 1.034a23.369 23.369 0 0 1 13.703 13.704l1.034 2.763 1.033-2.763a23.367 23.367 0 0 1 13.702-13.704L1716 286.5l-2.764-1.032z"/>
        <path fill="#006DB4" d="M829.237 397.467a23.365 23.365 0 0 1-13.703-13.704L814.501 381l-1.034 2.763a23.365 23.365 0 0 1-13.703 13.704L797 398.499l2.764 1.034a23.367 23.367 0 0 1 13.703 13.705L814.5 416l1.033-2.762a23.367 23.367 0 0 1 13.703-13.705L832 398.5l-2.763-1.032zM495.606 303.23a28.72 28.72 0 0 1-16.838-16.836l-1.27-3.394-1.267 3.394a28.722 28.722 0 0 1-16.838 16.835L456 304.5l3.393 1.269a28.72 28.72 0 0 1 16.838 16.835l1.268 3.396 1.27-3.396a28.716 28.716 0 0 1 16.837-16.835L499 304.5l-3.394-1.27zM289.606 988.23a28.72 28.72 0 0 1-16.838-16.836l-1.27-3.394-1.267 3.394a28.722 28.722 0 0 1-16.838 16.835L250 989.5l3.393 1.269a28.72 28.72 0 0 1 16.838 16.835l1.268 3.396 1.27-3.396a28.716 28.716 0 0 1 16.837-16.835L293 989.5l-3.394-1.27zM1667.606 806.23a28.72 28.72 0 0 1-16.838-16.836l-1.27-3.394-1.267 3.394a28.722 28.722 0 0 1-16.838 16.835L1628 807.5l3.393 1.269a28.72 28.72 0 0 1 16.838 16.835l1.268 3.396 1.27-3.396a28.716 28.716 0 0 1 16.837-16.835L1671 807.5l-3.394-1.27zM890.606 731.23a28.72 28.72 0 0 1-16.838-16.836l-1.27-3.394-1.267 3.394a28.722 28.722 0 0 1-16.838 16.835L851 732.5l3.393 1.269a28.72 28.72 0 0 1 16.838 16.835l1.268 3.396 1.27-3.396a28.716 28.716 0 0 1 16.837-16.835L894 732.5l-3.394-1.27z"/>
        <path fill="#F8B444" d="M608.79 366.174a18.694 18.694 0 0 1-10.963-10.964L597 353l-.827 2.21a18.702 18.702 0 0 1-10.963 10.964L583 367l2.21.827a18.698 18.698 0 0 1 10.963 10.963L597 381l.827-2.21a18.69 18.69 0 0 1 10.963-10.963L611 367l-2.21-.826z"/>
        <path fill="#4CBDB7" d="M1738 395a3 3 0 1 1-6.002-.001 3 3 0 0 1 6.002 0M970 829a3 3 0 1 1-6.002-.001 3 3 0 0 1 6.002 0M1656 974a3 3 0 1 1-6.002-.001 3 3 0 0 1 6.002 0"/>
        <path fill="#7790FC" d="M1529 692a3 3 0 1 1-6.002-.001 3 3 0 0 1 6.002 0M1889 850a3 3 0 1 1-6.002-.001 3 3 0 0 1 6.002 0"/>
        <path fill="#EBA3A0" d="M241 937a3 3 0 1 1-6.002-.001 3 3 0 0 1 6.002 0"/>
        <path fill="#F6D98C" d="M1228 167a2 2 0 1 1-3.999 0 2 2 0 0 1 3.999 0"/>
        <g fill="#F6D98C">
            <path d="M207.449 476.298c0 6.019-4.88 10.898-10.898 10.898-6.02 0-10.9-4.88-10.9-10.898 0-6.02 4.88-10.9 10.9-10.9 6.019 0 10.898 4.88 10.898 10.9M216.518 504.596a2.768 2.768 0 1 1-5.536 0 2.768 2.768 0 0 1 5.536 0"/>
        </g>
        <path fill="#F6D98C" d="M1671 489a3 3 0 1 1-6 0 3 3 0 0 1 6 0M583 101a3 3 0 1 1-6.001 0 3 3 0 0 1 6.001 0M1375 399a7 7 0 1 1-14 0 7 7 0 0 1 14 0M438 861a7 7 0 1 1-14 0 7 7 0 0 1 14 0"/>
        <g>
            <path fill="#0D89CE" d="M1591.472-92.965c40.63-18.014 89.14-23.378 129.068-3.82 39.929 19.559 66.604 68.355 52.035 110.362-7.431 21.43-24.265 44.738-12.456 64.11 5.484 8.998 15.74 13.679 25.259 18.195 26.563 12.598 52.991 28.85 67.864 54.222 17.648 30.102 14.74 71.478-8.423 97.553-23.163 26.076-65.398 33.484-95.138 15.244-26.15-16.037-44.086-49.437-74.732-50.513-15.947-.561-30.51 8.334-45.932 12.424-20.218 5.363-41.603 2.367-62.292-.748-28.822-4.337-60.372-10.368-78.64-33.094-19.53-24.294-19.257-62.697-44.564-80.884-17.59-12.643-41.281-10.724-62.514-14.98-26.025-5.22-49.826-20.81-65.019-42.588-9.242-13.248-15.433-30.062-10.875-45.557 3.33-11.324 11.904-20.335 21.058-27.782 73.376-59.693 183.235-39.584 270.076-77.062"/>
            <path fill="#0D89CE" d="M1591.824-82.297c28.748-1.092 58.77-1.94 84.795 10.272 26.026 12.213 46.251 41.91 37.74 69.365-3.664 11.816-12.017 21.699-16.1 33.38-8.945 25.595 4.813 54.391 25.073 72.4 20.258 18.007 46.102 28.14 70.181 40.605 13.247 6.859 26.526 14.912 34.848 27.28s5.789 27.639 1.05 41.783c-9.261 27.63-41.42 30.903-59.084 26.705-20.866-4.96-45.078-29.37-61.138-51.381-13.057-17.894-41.072-32.566-65.796-26.575-28.607 6.93-37.829 9.745-56.794 15.498-34.246 10.387-59.175 7.634-82.56-19.393-21.473-24.82 9.964-83.062-17.474-101.094-41.509-27.278-107.58-.456-140.863-37.303-5.767-6.386-9.76-16.445-4.57-23.317 2.476-3.28 6.473-4.977 10.304-6.466a356.321 356.321 0 0 1 52.382-15.842"/>
            <path fill="#009AD0" d="M1611.076-11.077c8.001 3.77 15.19 12.304 14.077 21.077-.59 4.661-4.095 8.325-6.522 12.35-6.314 10.465-4.95 24.976 3.202 34.076 6.414 7.159 15.922 10.652 23.469 16.606 7.89 6.225 13.621 18.005 7.023 26.087-2.628 3.222-6.627 4.963-10.777 5.246-6.99.477-12.597-4.149-18.92-6.684-28.495-11.418-22.172 31.362-60.415 17.354-15.51-5.681-9.152-51.317-25.492-53.744-16.342-2.426-34.31-12.072-36.072-28.488-1.467-13.674 9.08-25.72 20.35-33.618 18.131-12.707 28.792-19.142 48.155-23.161 5.277-1.095 16.313.36 21.446 1.998 6.176 1.972 13.706 7.713 20.476 10.901"/>
            <path fill="#009AD0" d="M1591.001-91.027c45.428-1.687 100.418-.476 125.718 44.532 5.193 9.24 8.7 19.547 8.812 30.235.125 11.995-3.871 22.611-9.636 32.967-4.336 7.786-9.988 15.749-9.851 24.782.118 8.068 2.913 15.96 5.976 23.325 4.59 11.039 10.496 23.186 18.152 32.511 4.578 5.574 14.481 11.26 21.51 15.345 10.853 6.309 22.211 11.68 33.473 17.206 20.892 10.252 48.745 22.975 55.94 47.38 6.173 20.937-1.838 49.135-19.518 62.36-14.776 11.056-36.4 14.068-54.06 9.34-21.633-5.792-39.264-23.162-53.554-39.568-6.878-7.897-12.415-17.245-20.41-24.074-7.943-6.782-17.547-11.94-27.805-14.106-11.72-2.476-22.179.307-33.555 3.178-8.901 2.246-17.767 4.623-26.576 7.206-18.07 5.296-36.216 11.779-55.303 11.364-19.67-.428-36.776-8.678-49.332-23.879-13.238-16.027-15.184-35.258-13.766-55.293.616-8.694 1.924-17.365 2.175-26.081.193-6.692-.018-14.732-4.152-19.807-4.602-5.65-13.322-8.761-20.123-10.82-8.043-2.435-16.514-3.576-24.857-4.366-17.686-1.674-35.566-1.23-53.16-3.891-17.832-2.697-35.057-9.169-47.504-22.68-7.106-7.713-12.057-19.008-8.549-29.463 4.303-12.827 19.396-16.47 30.82-20.387 13.547-4.647 27.358-8.366 41.331-11.488 4.858-1.086 9.671 3.765 10.096 8.298.513 5.468-3.387 9-8.295 10.098-13.124 2.931-26.069 6.672-38.757 11.123a345.067 345.067 0 0 0-8.939 3.267c-2.304.882-6.517 1.813-8.015 3.896-1.92 2.674-.4 6.057 1.202 8.702 7.743 12.785 24.372 17.94 38.194 20.177 32.708 5.292 68.939-.912 98.858 16.335 34.052 19.632 13.282 60.67 18.601 91.555 2.652 15.402 15.252 29.213 30.005 34.082 15.548 5.132 33.022.977 48.155-3.586 17.394-5.244 34.84-10.088 52.493-14.393 21.901-5.34 42.66-1.241 61.427 11.33 17.423 11.67 27.555 31.153 42.742 45.347 12.91 12.065 27.382 22.379 45.75 21.4 7.903-.422 16.024-2.231 22.627-6.784 8.103-5.586 11.652-14.04 13.77-23.392 2.53-11.17 1.806-20.95-5.838-29.878-7.346-8.579-17.6-14.38-27.486-19.525-21.038-10.949-43.154-20.077-62.446-34.096-4.846-3.522-9.742-7.075-13.138-12.055a209.762 209.762 0 0 1-8.53-13.643c-8.037-13.985-15.541-29.131-17.647-45.317-1.075-8.257-.015-16.185 3.259-23.836 4.242-9.913 11.442-18.7 14.445-29.137 5.245-18.225-5.131-37.08-18.798-48.656-16.656-14.11-38.956-18.124-60.173-19.106-11.308-.523-22.655-.059-33.958.36-11.813.438-13.728-17.951-1.8-18.394"/>
        </g>
        <path fill="#006DB4" d="M212.864 784.745c2.969 10.352-3.018 21.15-13.37 24.12-10.352 2.968-21.15-3.019-24.12-13.37-2.968-10.353 3.018-21.151 13.37-24.12 10.353-2.968 21.152 3.017 24.12 13.37M42.088 894.66c1.53 5.333-1.555 10.898-6.89 12.428-5.334 1.53-10.899-1.555-12.428-6.89-1.53-5.334 1.554-10.899 6.89-12.428 5.333-1.53 10.898 1.554 12.428 6.89M1011.017 854.126c2.079 7.25-2.113 14.812-9.363 16.89-7.25 2.08-14.811-2.112-16.89-9.362-2.079-7.25 2.113-14.811 9.362-16.89 7.25-2.079 14.812 2.113 16.89 9.362M1701.017 990.126c2.079 7.25-2.113 14.812-9.363 16.89-7.25 2.08-14.811-2.112-16.89-9.362-2.079-7.25 2.113-14.811 9.362-16.89 7.25-2.079 14.812 2.113 16.89 9.362"/>
    </g>
</svg>