<?xml version="1.0" encoding="utf-8"?>
<!-- Generator: Adobe Illustrator 25.2.0, SVG Export Plug-In . SVG Version: 6.00 Build 0)  -->
<svg version="1.2" baseProfile="tiny" id="图层_1"
	 xmlns="http://www.w3.org/2000/svg" xmlns:xlink="http://www.w3.org/1999/xlink" x="0px" y="0px" viewBox="0 0 178 49.5"
	 overflow="visible" xml:space="preserve">
<path fill="#FFF1D2" d="M153.2,49.5H25.9c-13.7,0-24.7-11.1-24.7-24.7v0C1.2,11.1,12.3,0,25.9,0h127.3C166.9,0,178,11.1,178,24.7v0
	C178,38.4,166.9,49.5,153.2,49.5z"/>
<linearGradient id="SVGID_1_" gradientUnits="userSpaceOnUse" x1="3.3121" y1="37.1254" x2="46.1856" y2="12.3724">
	<stop  offset="0.2814" style="stop-color:#FFD769"/>
	<stop  offset="1" style="stop-color:#FFC51A"/>
</linearGradient>
<circle fill="url(#SVGID_1_)" cx="24.7" cy="24.7" r="24.7"/>
<g>
	<path fill="#FFFFFF" stroke="#FFFFFF" d="M28.8,16.3v-0.8h6.9v0.8h-0.8c-0.5,0-1,0.1-1.4,0.4c-0.4,0.3-0.8,0.7-1,1.4l-7.8,19.2
		h-1.1l-7.1-19.2c-0.1-0.6-0.4-1-0.7-1.3c-0.3-0.3-0.8-0.4-1.4-0.4h-1v-0.8h8.2v0.8h-0.8c-0.6,0-1,0.1-1.2,0.4
		c-0.2,0.3-0.2,0.6-0.1,1l5.3,14.9h0.4l5.7-14.5c0.1-0.3,0.2-0.6,0.2-0.8c0-0.3-0.1-0.5-0.3-0.7c-0.2-0.2-0.7-0.3-1.4-0.3H28.8z"/>
</g>
<g>
	<path fill="#FFC51A" d="M89,24.9c-0.9-0.1-1.9-0.2-2.8-0.2H69.5v9.7c-0.1,1.2,0.2,1.8,0.9,2c0.6,0.3,2.3,0.5,4.9,0.5h2.7
		c5.4,0,8.7-0.2,9.7-0.8c1.3-0.4,2-1.8,2-4.3c0.8,0.9,1.7,1.4,2.4,1.7c-0.6,2.3-1.7,3.8-3.3,4.3c-1.6,0.7-4.9,1-10,1h-2.5
		c-3.9,0-6.3-0.2-7.3-0.7c-0.6-0.3-0.9-0.6-1.1-1.1c-0.2-0.4-0.3-1.1-0.3-2.2V21c0-0.8-0.1-1.7-0.2-2.6l2.6,0.3
		c0.2,0.1,0.4,0.1,0.4,0.2c0,0.1-0.1,0.2-0.3,0.3c-0.4,0.2-0.6,0.9-0.6,2.2V23h17.4v-8.5H69.6c-0.9,0-1.7,0.1-2.5,0.2v-2.1
		c0.7,0.1,1.5,0.2,2.5,0.2h16.6c0.8,0,1.7-0.1,2.8-0.2c-0.1,0.8-0.2,1.7-0.2,2.7v6.8C88.8,23.3,88.8,24.2,89,24.9z"/>
	<path fill="#FFC51A" d="M102,20.6c-0.1,0.7-0.3,5.2-0.5,13.5c1.6-1.3,3-2.5,4-3.7c0.1,0.8,0.4,1.4,0.8,2c-0.1,0.1-0.4,0.3-0.7,0.6
		c-2.2,1.9-4,3.5-5.4,4.8c-0.5-0.7-1-1.3-1.6-1.8c0.6-0.4,0.9-1.2,0.9-2.4l0.4-11.1h-2.4c-0.9,0-1.7,0.1-2.6,0.2v-2
		c0.8,0.1,1.7,0.2,2.6,0.2h1.7C100.3,20.8,101.2,20.7,102,20.6z M98,12.4l1.3-1.4c1.9,1.5,4,3.4,6.3,5.8l-1.4,1.4
		C101.9,15.8,99.9,13.8,98,12.4z M112.9,10.6l2.4,0.3c0.2,0,0.4,0.1,0.4,0.2c0,0.1-0.1,0.2-0.3,0.3c-0.4,0.2-0.6,0.8-0.6,1.7v5.5
		c1.6,8.3,4.8,14.3,9.5,18.1c-1,0.3-1.7,0.8-2.2,1.5c-3.4-3.5-6-8.3-7.8-14.7c-0.8,6.2-3.5,11.5-8.3,15.9c-0.6-0.7-1.4-1.2-2.3-1.4
		c4.8-3.2,7.8-8.4,9-15.6l0.4-9.6C113.1,12,113,11.2,112.9,10.6z"/>
	<path fill="#FFC51A" d="M135.3,30.7l1.1,2.1c-3,3.8-4.8,6.2-5.4,7.2l-1.7-1.9c0.3-0.5,0.6-0.8,0.6-1c0.1-0.2,0.2-0.6,0.2-1.2
		l0.3-13.5h-2c-0.7,0-1.4,0-2.3,0.2v-2.1c0.8,0.1,1.5,0.2,2.2,0.2h1.5c0.6,0,1.5,0,2.4-0.2c-0.1,0.9-0.2,1.7-0.2,2.6L132,35.5
		C133,34.2,134.1,32.6,135.3,30.7z M128.4,11.9l1.6-1.4c1.7,1.8,3.4,3.5,4.9,5.3l-1.7,1.6C131.7,15.3,130.1,13.5,128.4,11.9z
		 M140.5,36.6h4.4V14.2h-6.3c-0.6,0-1.4,0.1-2.2,0.2v-2.1c0.9,0.1,1.6,0.2,2.1,0.2h13.8c0.6,0,1.3,0,2.1-0.2v2.1
		c-0.8-0.1-1.5-0.2-2-0.2h-5.7v9.2h4.5c0.6,0,1.3,0,2.2-0.2v2.1c-0.8-0.1-1.5-0.2-2.2-0.2h-4.5v11.5h6.2c0.6,0,1.4,0,2.2-0.2v2.1
		c-0.8-0.1-1.5-0.2-2.2-0.2h-16.1c-0.6,0-1.4,0-2.4,0.2v-2.1c0.9,0.1,1.6,0.2,2.2,0.2h2.2V23.9c0-1,0-2.1-0.2-3.1l2.4,0.3
		c0.3,0,0.4,0.1,0.4,0.2c0,0.1-0.1,0.2-0.3,0.3c-0.4,0.1-0.6,0.9-0.5,2.2V36.6z"/>
</g>
</svg>
